<?xml version="1.0" standalone="no"?>
<!DOCTYPE svg PUBLIC "-//W3C//DTD SVG 20010904//EN"
 "http://www.w3.org/TR/2001/REC-SVG-20010904/DTD/svg10.dtd">
<svg version="1.0" xmlns="http://www.w3.org/2000/svg"
 width="308.000000pt" height="308.000000pt" viewBox="0 0 308.000000 308.000000"
 preserveAspectRatio="xMidYMid meet">
<metadata>
Created by potrace 1.14, written by Peter Selinger 2001-2017
</metadata>
<g transform="translate(0.000000,308.000000) scale(0.100000,-0.100000)"
fill="#000000" stroke="none">
<path d="M551 2679 c-48 -21 -318 -181 -459 -272 -80 -51 -91 -61 -80 -75 7
-9 73 -76 145 -150 73 -73 133 -137 133 -140 0 -9 -43 -56 -137 -153 l-74 -75
36 -95 c77 -200 152 -346 256 -501 32 -48 65 -95 73 -105 242 -303 471 -493
788 -650 128 -64 133 -65 158 -45 l22 18 -37 124 c-20 69 -38 132 -40 141 -2
9 -22 77 -44 150 -23 74 -55 177 -71 229 -15 52 -43 142 -61 200 -18 58 -34
110 -35 115 -8 32 -129 419 -159 510 -24 76 -36 96 -83 142 l-44 43 9 68 c13
108 7 157 -41 346 -26 98 -49 182 -51 186 -10 17 -161 9 -204 -11z"/>
<path d="M2316 2672 c-12 -23 -43 -129 -93 -326 -24 -96 -24 -100 -10 -175 14
-69 14 -79 0 -109 -9 -19 -31 -44 -49 -55 -35 -23 -51 -66 -151 -397 -20 -63
-46 -151 -60 -195 -57 -185 -65 -211 -73 -240 -4 -16 -31 -104 -58 -195 -71
-234 -154 -520 -159 -552 -3 -22 1 -30 20 -39 22 -10 38 -5 123 37 138 67 341
189 374 224 3 3 22 18 44 34 85 63 268 241 341 329 154 187 304 450 390 681
l36 99 -69 71 c-113 114 -141 149 -134 162 4 6 69 76 145 154 133 138 138 144
120 161 -22 22 -229 149 -243 149 -6 0 -10 5 -10 10 0 6 -4 10 -9 10 -5 0 -69
37 -143 81 l-133 81 -97 3 c-54 2 -100 0 -102 -3z"/>
<path d="M973 2574 c-27 -30 -27 -39 -9 -137 13 -65 14 -167 2 -252 -1 -11 2
-29 8 -40 36 -74 118 -56 296 66 l90 61 0 113 0 112 -72 22 c-292 90 -285 89
-315 55z"/>
<path d="M1882 2550 c-85 -26 -158 -52 -162 -56 -5 -5 -10 -55 -12 -112 -4
-90 -2 -104 13 -113 10 -5 23 -15 31 -22 41 -40 201 -136 238 -142 44 -7 99 8
101 29 0 6 2 74 3 151 1 77 5 152 9 167 21 82 3 142 -44 145 -13 1 -93 -20
-177 -47z"/>
<path d="M1442 2509 c-42 -12 -50 -35 -48 -132 2 -83 12 -103 57 -112 76 -16
110 -16 162 -1 l57 17 0 109 c0 61 -3 111 -7 111 -5 1 -17 3 -28 5 -56 9 -164
11 -193 3z"/>
<path d="M1490 1883 c-26 -34 -23 -60 12 -81 37 -22 78 -7 91 32 9 26 7 32
-17 53 -35 30 -60 29 -86 -4z"/>
<path d="M1491 1564 c-12 -15 -21 -32 -21 -38 0 -16 38 -56 53 -56 33 1 57 15
68 42 12 29 11 33 -15 54 -35 31 -60 30 -85 -2z"/>
<path d="M1502 1258 c-31 -15 -39 -54 -17 -78 24 -27 50 -33 77 -19 45 24 49
49 13 84 -26 27 -38 29 -73 13z"/>
<path d="M1509 943 c-21 -5 -43 -47 -36 -67 10 -25 53 -47 80 -41 49 13 57 83
11 104 -26 11 -28 12 -55 4z"/>
</g>
</svg>
